<?xml version="1.0" encoding="UTF-8" standalone="no"?>
<!-- Created with Inkscape (http://www.inkscape.org/) -->

<svg
   xmlns:dc="http://purl.org/dc/elements/1.1/"
   xmlns:cc="http://creativecommons.org/ns#"
   xmlns:rdf="http://www.w3.org/1999/02/22-rdf-syntax-ns#"
   xmlns:svg="http://www.w3.org/2000/svg"
   xmlns="http://www.w3.org/2000/svg"
   xmlns:sodipodi="http://sodipodi.sourceforge.net/DTD/sodipodi-0.dtd"
   xmlns:inkscape="http://www.inkscape.org/namespaces/inkscape"
   version="1.1"
   id="svg815"
   xml:space="preserve"
   width="318"
   height="80"
   viewBox="0 0 397.64956 100"
   sodipodi:docname="logo-periscope.svg"
   inkscape:version="0.92.4 (5da689c313, 2019-01-14)"><metadata
     id="metadata821"><rdf:RDF><cc:Work
         rdf:about=""><dc:format>image/svg+xml</dc:format><dc:type
           rdf:resource="http://purl.org/dc/dcmitype/StillImage" /><dc:title></dc:title></cc:Work></rdf:RDF></metadata><defs
     id="defs819"><clipPath
       clipPathUnits="userSpaceOnUse"
       id="clipPath831"><path
         d="M 0.014999,73.23 H 291.212 V 0 H 0.014999 Z"
         id="path829"
         inkscape:connector-curvature="0" /></clipPath><clipPath
       clipPathUnits="userSpaceOnUse"
       id="clipPath847"><path
         d="M 0.014999,73.23 H 291.212 V 0 H 0.014999 Z"
         id="path845"
         inkscape:connector-curvature="0" /></clipPath><clipPath
       clipPathUnits="userSpaceOnUse"
       id="clipPath877"><path
         d="M 0.014999,73.23 H 291.212 V 0 H 0.014999 Z"
         id="path875"
         inkscape:connector-curvature="0" /></clipPath></defs><sodipodi:namedview
     pagecolor="#ffffff"
     bordercolor="#666666"
     borderopacity="1"
     objecttolerance="10"
     gridtolerance="10"
     guidetolerance="10"
     inkscape:pageopacity="0"
     inkscape:pageshadow="2"
     inkscape:window-width="1600"
     inkscape:window-height="877"
     id="namedview817"
     showgrid="false"
     inkscape:zoom="1.429371"
     inkscape:cx="194.10134"
     inkscape:cy="48.828135"
     inkscape:window-x="-8"
     inkscape:window-y="-8"
     inkscape:window-maximized="1"
     inkscape:current-layer="g823"
     fit-margin-top="0"
     fit-margin-left="0"
     fit-margin-right="0"
     fit-margin-bottom="0" /><g
     id="g823"
     inkscape:groupmode="layer"
     inkscape:label="periscope"
     transform="matrix(1.3333333,0,0,-1.3333333,-0.01999867,100.0006)"><g
       id="g825"
       transform="matrix(1.0241767,0,0,1.0241767,-3.6262455e-4,-1.0859035e-5)"><g
         id="g827"
         clip-path="url(#clipPath831)"><g
           id="g833"
           transform="translate(40.501,19.243)"><path
             d="m 0,0 h -40.501 v 40.5 l 13.5,13.5 H 13.5 V 13.5 L 0,0"
             style="fill:#292b66;fill-opacity:1;fill-rule:nonzero;stroke:none"
             id="path835"
             inkscape:connector-curvature="0" /></g><path
           d="M 13.5,32.743 H 54.001 V 73.23 H 13.5 Z"
           style="fill:#292b66;fill-opacity:1;fill-rule:nonzero;stroke:none"
           id="path837"
           inkscape:connector-curvature="0" /></g></g><path
       d="M 6.9128304,26.621415 H 48.393013 V 68.100574 H 6.9128304 Z"
       style="fill:#ffffff;fill-opacity:1;fill-rule:nonzero;stroke:none;stroke-width:1.02417672"
       id="path839"
       inkscape:connector-curvature="0" /><g
       id="g841"
       transform="matrix(1.0241767,0,0,1.0241767,-3.6262455e-4,-1.0859035e-5)"><g
         id="g843"
         clip-path="url(#clipPath847)"><path
           d="m 0.014999,19.243 h 40.486 v 40.5 h -40.486 z"
           style="fill:#3871c1;fill-opacity:1;fill-rule:nonzero;stroke:none"
           id="path849"
           inkscape:connector-curvature="0" /><g
           id="g851"
           transform="translate(6.9785,8.2735)"><path
             d="M 0,0 C 0.5459,0.2002 1.0918,0.3271 1.6358,0.3799 2.1797,0.4336 2.5078,0.3496 2.6191,0.1279 2.7305,-0.0928 2.6719,-0.3057 2.4443,-0.5108 2.2168,-0.7168 1.9102,-0.8301 1.5215,-0.8486 1.1348,-0.8682 0.7129,-1.0762 0.2578,-1.4697 -0.1973,-1.8643 -0.4639,-2.335 -0.541,-2.8819 c -0.0781,-0.5478 -0.0684,-0.9267 0.0293,-1.1376 0.0976,-0.21 0.2031,-0.6202 0.3144,-1.2266 0.1114,-0.6084 0.0196,-1.127 -0.2734,-1.5557 -0.292,-0.4287 -0.6035,-0.7402 -0.9326,-0.9326 -0.3291,-0.1924 -0.7354,-0.331 -1.2197,-0.418 -0.4834,-0.0859 -0.8946,-0.1259 -1.2344,-0.1201 -0.3399,0.0049 -0.7012,0.0742 -1.0859,0.2071 -0.3848,0.1308 -0.6172,0.3935 -0.6973,0.7861 -0.0821,0.3935 0.6435,1.1074 2.1758,2.1426 1.5332,1.0341 1.6523,1.0634 0.3593,0.0879 -1.2949,-0.9766 -1.8047,-1.587 -1.5312,-1.8321 0.2744,-0.2451 0.6055,-0.3135 0.9941,-0.2041 0.3897,0.1074 0.6973,0.2569 0.9258,0.4463 0.2266,0.1895 0.3965,0.4219 0.5107,0.6973 0.1143,0.2744 0.1661,0.5303 0.1573,0.7646 -0.0098,0.2354 -0.1055,0.7588 -0.2871,1.5723 -0.1836,0.8115 -0.1719,1.4209 0.0322,1.8252 0.2041,0.4043 0.5029,0.751 0.8955,1.043 C -1.0166,-0.4453 -0.5469,-0.2012 0,0"
             style="fill:#292b66;fill-opacity:1;fill-rule:nonzero;stroke:none"
             id="path853"
             inkscape:connector-curvature="0" /></g></g></g><g
       id="g855"
       transform="matrix(1.0241767,0,0,1.0241767,17.758862,7.0912865)"><path
         d="M 0,0 C 0.287,0.1103 0.535,0.1474 0.746,0.1133 0.955,0.0781 1.1,0 1.18,-0.1211 1.259,-0.2432 1.168,-0.6963 0.91,-1.4805 0.651,-2.2656 0.477,-2.9336 0.385,-3.4854 0.293,-4.0381 0.354,-4.4278 0.567,-4.6563 0.779,-4.8848 1.154,-4.9717 1.693,-4.918 c 0.538,0.0537 1.123,0.3203 1.756,0.8018 0.633,0.4795 0.704,0.5019 0.215,0.0664 C 3.174,-4.4864 2.719,-4.878 2.299,-5.2266 1.878,-5.5742 1.51,-5.792 1.196,-5.8809 0.883,-5.9698 0.52,-5.9854 0.105,-5.9258 c -0.412,0.0596 -0.746,0.1904 -0.999,0.3935 -0.254,0.2022 -0.454,0.4434 -0.598,0.7227 -0.145,0.2793 -0.152,0.6191 -0.024,1.0195 0.131,0.3995 0.215,0.7461 0.254,1.0381 0.039,0.291 -0.114,0.2774 -0.459,-0.039 -0.345,-0.3194 -0.768,-0.6651 -1.271,-1.0381 -0.502,-0.3731 -1.034,-0.7002 -1.596,-0.9834 -0.562,-0.2832 -1.004,-0.4639 -1.324,-0.542 -0.32,-0.0781 -0.641,-0.1328 -0.959,-0.1641 -0.32,-0.0312 -0.6143,0.0186 -0.8838,0.1475 -0.2686,0.1308 -0.4346,0.3291 -0.4981,0.5967 -0.0635,0.2675 0.0127,0.663 0.2256,1.1865 0.2129,0.5244 0.5684,1.2373 1.0663,2.1377 0.498,0.9004 0.368,1.3896 -0.3905,1.4638 -0.7588,0.0752 -1.3262,0.2129 -1.7031,0.4131 -0.377,0.1993 -0.1465,0.169 0.6914,-0.0908 0.8359,-0.2588 1.4202,-0.2451 1.7522,0.041 0.33,0.2871 0.636,0.4551 0.915,0.503 0.278,0.0478 0.544,0.0322 0.793,-0.045 0.25,-0.0771 0.411,-0.2089 0.481,-0.3925 0.072,-0.1836 0.055,-0.3995 -0.052,-0.6485 -0.106,-0.249 -0.463,-0.9013 -1.075,-1.957 -0.609,-1.0557 -0.635,-1.5254 -0.076,-1.4102 0.559,0.1172 1.567,0.7159 3.027,1.7989 C -1.141,-0.6924 -0.273,-0.0996 0,0"
         style="fill:#292b66;fill-opacity:1;fill-rule:nonzero;stroke:none"
         id="path857"
         inkscape:connector-curvature="0" /></g><g
       id="g859"
       transform="matrix(1.0241767,0,0,1.0241767,31.811591,4.9138868)"><path
         d="m 0,0 c -0.294,0.2861 -0.668,0.2148 -1.123,-0.2168 -0.457,-0.4307 -0.733,-0.8916 -0.83,-1.3809 -0.098,-0.4892 -0.069,-0.8349 0.082,-1.0361 0.152,-0.2002 0.314,-0.3174 0.483,-0.3525 0.169,-0.0342 0.411,0.0488 0.728,0.247 0.314,0.1973 0.578,0.6348 0.787,1.3096 C 0.336,-0.7529 0.293,-0.2773 0,0 Z M -0.974,2.4766 C -0.712,2.6592 -0.395,2.7744 -0.02,2.8213 0.354,2.8662 0.662,2.8457 0.905,2.7588 1.148,2.6699 1.353,2.5176 1.519,2.3008 1.684,2.084 2.105,1.9756 2.785,1.9736 3.464,1.9736 4.309,1.9561 5.32,1.9238 6.33,1.8916 6.117,1.8711 4.678,1.8643 3.238,1.8564 2.419,1.8262 2.221,1.7725 2.023,1.7178 1.939,1.5342 1.967,1.2197 1.996,0.9062 2.017,0.5742 2.03,0.2236 2.045,-0.127 2.041,-0.5156 2.02,-0.9434 1.998,-1.3721 1.952,-1.6885 1.881,-1.8975 1.809,-2.1055 1.702,-2.3223 1.563,-2.5498 1.423,-2.7773 1.218,-3.0166 0.949,-3.2676 0.68,-3.5205 0.35,-3.752 -0.041,-3.9648 c -0.391,-0.2129 -0.75,-0.3711 -1.078,-0.4756 -0.328,-0.1035 -0.682,-0.1035 -1.059,0.0029 -0.379,0.1045 -0.685,0.2666 -0.918,0.4844 -0.234,0.2177 -0.42,0.4433 -0.558,0.6758 -0.139,0.2314 -0.192,0.6357 -0.161,1.2099 0.031,0.5733 0.12,1.0332 0.27,1.3819 0.149,0.3476 0.339,0.871 0.645,1.248 0.304,0.376 0.519,0.6777 0.933,1.0693 0.416,0.3887 0.746,0.6709 0.993,0.8448"
         style="fill:#292b66;fill-opacity:1;fill-rule:nonzero;stroke:none"
         id="path861"
         inkscape:connector-curvature="0" /></g><g
       id="g863"
       transform="matrix(1.0241767,0,0,1.0241767,39.746913,7.7173657)"><path
         d="M 0,0 C 1.324,0.374 2.221,0.459 2.691,0.2529 3.164,0.0469 3.393,-0.2559 3.379,-0.6523 3.365,-1.0498 2.89,-1.2549 1.952,-1.2715 1.016,-1.2871 0.203,-1.4639 -0.482,-1.8027 c -0.684,-0.3379 -1.134,-0.8418 -1.35,-1.5127 -0.215,-0.6699 -0.055,-1.1817 0.48,-1.5352 0.537,-0.3545 1.084,-0.5224 1.642,-0.5068 0.556,0.0176 1.05,0.0742 1.479,0.1709 0.43,0.0976 0.932,0.2617 1.506,0.4931 0.575,0.2305 1.222,0.5665 1.943,1.0088 0.72,0.4424 0.702,0.3819 -0.054,-0.1797 C 4.406,-4.4258 3.719,-4.8965 3.102,-5.2793 2.484,-5.6602 1.936,-5.9385 1.457,-6.1123 0.979,-6.2871 0.508,-6.4082 0.045,-6.4736 c -0.463,-0.0645 -1.016,-0.0762 -1.66,-0.0342 -0.645,0.042 -1.25,0.3008 -1.819,0.7744 -0.569,0.4746 -0.843,1.0303 -0.826,1.667 0.019,0.6367 0.158,1.1728 0.417,1.6074 0.259,0.4346 0.651,0.8594 1.174,1.2735 C -2.146,-0.7715 -1.256,-0.3769 0,0"
         style="fill:#292b66;fill-opacity:1;fill-rule:nonzero;stroke:none"
         id="path865"
         inkscape:connector-curvature="0" /></g><g
       id="g867"
       transform="matrix(1.0241767,0,0,1.0241767,25.016179,5.8280669)"><path
         d="m 0,0 c -0.287,-0.0889 -0.713,-0.3389 -1.277,-0.7471 -0.564,-0.4092 -0.951,-0.791 -1.16,-1.1475 -0.211,-0.3564 -0.271,-0.6445 -0.18,-0.8593 0.092,-0.2149 0.506,-0.042 1.242,0.5205 0.736,0.5615 1.221,1.0263 1.451,1.3935 0.231,0.3662 0.351,0.6211 0.36,0.7618 C 0.445,0.0635 0.301,0.0888 0,0 Z M 1.451,8.114 C 1.618,8.289 1.844,8.366 2.129,8.347 2.414,8.325 2.676,8.228 2.917,8.051 3.158,7.874 3.415,7.622 3.688,7.294 3.96,6.965 4.191,6.31 4.385,5.33 4.577,4.351 4.201,2.9433 4.549,2.666 4.896,2.3886 5.059,2.1347 5.034,1.9053 5.01,1.6758 4.867,1.4902 4.606,1.3486 4.346,1.206 4.094,1.1631 3.85,1.2197 3.607,1.2763 3.32,0.9941 2.99,0.373 2.659,-0.249 2.258,-0.8555 1.786,-1.4483 1.313,-2.041 0.883,-2.5391 0.496,-2.9395 c -0.387,-0.4004 -0.914,-0.8174 -1.58,-1.25 -0.668,-0.4336 -1.184,-0.6787 -1.552,-0.7344 -0.367,-0.0566 -0.686,-0.0498 -0.956,0.0245 -0.271,0.0713 -0.519,0.2509 -0.744,0.5371 -0.226,0.2861 -0.342,0.8144 -0.348,1.5888 -0.006,0.7735 0.303,1.5303 0.926,2.2715 0.625,0.7422 1.737,1.3838 3.336,1.9268 1.598,0.543 2.014,0.7861 2.331,1.1133 C 2.914,3.5732 2.875,4.2011 2.776,4.762 2.678,5.322 2.365,5.892 1.84,6.471 1.313,7.049 1.08,7.426 1.137,7.602 1.193,7.779 1.3,7.95 1.451,8.114"
         style="fill:#292b66;fill-opacity:1;fill-rule:nonzero;stroke:none"
         id="path869"
         inkscape:connector-curvature="0" /></g><g
       id="g871"
       transform="matrix(1.0241767,0,0,1.0241767,-3.6262455e-4,-1.0859035e-5)"><g
         id="g873"
         clip-path="url(#clipPath877)"><g
           id="g879"
           transform="translate(192.095,10.571)"><path
             d="M 0,0 H -0.068 C -0.222,0 -0.355,-0.056 -0.465,-0.166 -0.576,-0.277 -0.631,-0.41 -0.631,-0.564 v -0.0453 c 0,-0.1543 0.055,-0.2881 0.166,-0.3985 0.11,-0.1103 0.243,-0.166 0.397,-0.166 H 0 c 0.155,0 0.288,0.0557 0.397,0.166 0.112,0.1104 0.166,0.2442 0.166,0.3985 v 0.0453 c 0,0.154 -0.054,0.287 -0.166,0.398 C 0.288,-0.056 0.155,0 0,0 Z m 30.925,-4.6826 c 0.014,0.2881 0.077,0.5352 0.188,0.7412 0.303,0.583 0.782,0.875 1.438,0.875 0.414,0 0.768,-0.1259 1.063,-0.3769 0.354,-0.3028 0.546,-0.7149 0.575,-1.2393 z m 1.626,2.4688 c -0.87,0 -1.542,-0.3028 -2.014,-0.9082 -0.42,-0.5381 -0.631,-1.2139 -0.631,-2.0244 0,-0.9375 0.251,-1.6612 0.753,-2.17 0.501,-0.5097 1.207,-0.7636 2.114,-0.7636 0.435,0 0.82,0.0478 1.152,0.1435 0.147,0.044 0.284,0.0957 0.409,0.1553 0.125,0.0586 0.267,0.1308 0.425,0.2148 0.16,0.086 0.239,0.2237 0.239,0.416 0,0.1026 -0.045,0.1954 -0.133,0.2764 -0.089,0.0811 -0.181,0.1221 -0.276,0.1221 -0.097,0 -0.21,-0.0332 -0.344,-0.0996 -0.384,-0.1914 -0.86,-0.2881 -1.428,-0.2881 -0.568,0 -1.012,0.1474 -1.328,0.4424 -0.317,0.2949 -0.506,0.6933 -0.564,1.1953 h 3.752 c 0.155,0 0.278,0.0488 0.371,0.1445 0.092,0.0957 0.138,0.2139 0.138,0.3545 0,0.7744 -0.225,1.4238 -0.675,1.9473 -0.48,0.5615 -1.133,0.8418 -1.96,0.8418 z M 5.867,-6.708 C 5.689,-6.8632 5.492,-6.9775 5.274,-7.0507 5.056,-7.125 4.843,-7.1621 4.633,-7.1621 c -0.21,0 -0.425,0.0371 -0.643,0.1114 -0.217,0.0732 -0.413,0.1894 -0.587,0.3476 -0.173,0.1592 -0.315,0.3672 -0.425,0.626 -0.111,0.2588 -0.166,0.5693 -0.166,0.9355 0,0.3643 0.055,0.6768 0.166,0.9356 0.31,0.7158 0.863,1.0732 1.659,1.0732 0.488,0 0.898,-0.1513 1.23,-0.4541 0.398,-0.3681 0.598,-0.8857 0.598,-1.5498 0,-0.6855 -0.2,-1.2099 -0.598,-1.5713 z m -1.23,4.4942 c -0.862,0 -1.549,-0.2705 -2.058,-0.8086 -0.517,-0.5381 -0.775,-1.2471 -0.775,-2.124 0,-0.879 0.258,-1.5879 0.775,-2.126 0.509,-0.5381 1.196,-0.8076 2.058,-0.8076 0.857,0 1.543,0.2695 2.059,0.8076 0.517,0.5459 0.775,1.2549 0.775,2.126 0,0.8701 -0.258,1.5781 -0.775,2.124 -0.516,0.5381 -1.202,0.8086 -2.059,0.8086 z m 13.891,-2.8565 c -0.243,0.1182 -0.512,0.211 -0.803,0.2774 -0.292,0.0664 -0.558,0.1328 -0.802,0.1992 -0.244,0.0664 -0.449,0.1494 -0.615,0.249 -0.166,0.0996 -0.248,0.2529 -0.248,0.46 0,0.205 0.108,0.3828 0.326,0.5302 0.217,0.1475 0.537,0.2217 0.957,0.2217 0.42,0 0.809,-0.0556 1.163,-0.166 0.118,-0.0371 0.216,-0.0557 0.298,-0.0557 0.082,0 0.164,0.044 0.25,0.1338 0.084,0.0879 0.126,0.1817 0.126,0.2813 0,0.0996 -0.027,0.1894 -0.082,0.2715 -0.056,0.081 -0.134,0.1406 -0.239,0.1767 -0.516,0.1846 -1.051,0.2774 -1.604,0.2774 -0.694,0 -1.237,-0.166 -1.627,-0.4981 -0.177,-0.1553 -0.31,-0.3398 -0.399,-0.5537 -0.088,-0.2139 -0.133,-0.4687 -0.133,-0.7637 0,-0.2949 0.081,-0.5449 0.245,-0.748 0.162,-0.2022 0.366,-0.3662 0.614,-0.4922 0.246,-0.125 0.513,-0.2227 0.802,-0.293 0.288,-0.0703 0.555,-0.1386 0.802,-0.205 0.247,-0.0664 0.452,-0.1416 0.615,-0.2266 0.162,-0.085 0.244,-0.209 0.244,-0.3711 0,-0.5234 -0.41,-0.7852 -1.229,-0.7852 -0.51,0 -0.977,0.0957 -1.406,0.2872 -0.133,0.0595 -0.248,0.0888 -0.343,0.0888 -0.097,0 -0.185,-0.0459 -0.265,-0.1386 -0.082,-0.0928 -0.123,-0.2042 -0.123,-0.337 0,-0.1328 0.063,-0.2441 0.188,-0.332 0.598,-0.332 1.269,-0.498 2.015,-0.498 0.686,0 1.221,0.1621 1.604,0.4863 0.356,0.2949 0.532,0.6797 0.532,1.1514 0,0.6201 -0.288,1.0771 -0.863,1.372 z m 9.065,-1.2392 c -0.501,-0.5537 -1.084,-0.8301 -1.749,-0.8301 -0.546,0 -0.978,0.166 -1.295,0.498 -0.347,0.3614 -0.52,0.8604 -0.52,1.4952 0,0.3242 0.047,0.6113 0.144,0.8623 0.273,0.7529 0.83,1.1298 1.671,1.1298 0.665,0 1.248,-0.2773 1.749,-0.831 z m 0.503,6.4755 c -0.143,0 -0.263,-0.049 -0.359,-0.144 -0.097,-0.096 -0.144,-0.218 -0.144,-0.366 v -2.7116 c -0.546,0.5615 -1.177,0.8418 -1.892,0.8418 -0.717,0 -1.329,-0.2549 -1.838,-0.7647 -0.562,-0.5605 -0.841,-1.2832 -0.841,-2.1679 0,-0.9014 0.279,-1.628 0.841,-2.1817 0.516,-0.5019 1.129,-0.7519 1.838,-0.7519 0.715,0 1.346,0.2793 1.892,0.8408 v -0.2881 c 0,-0.1397 0.047,-0.2578 0.144,-0.3535 0.096,-0.0957 0.216,-0.1446 0.359,-0.1446 0.145,0 0.265,0.0489 0.36,0.1446 0.096,0.0957 0.144,0.2138 0.144,0.3535 v 7.1833 c 0,0.148 -0.048,0.27 -0.144,0.366 -0.095,0.095 -0.215,0.144 -0.36,0.144 z M 12.673,-2.3857 c -0.244,0.1143 -0.555,0.1719 -0.936,0.1719 -0.38,0 -0.78,-0.1221 -1.2,-0.3662 -0.215,-0.125 -0.469,-0.3418 -0.764,-0.6524 v 0.4541 c 0,0.1475 -0.051,0.2686 -0.149,0.3643 -0.101,0.0967 -0.221,0.1445 -0.361,0.1445 -0.139,0 -0.257,-0.0478 -0.354,-0.1445 C 8.814,-2.5097 8.765,-2.6308 8.765,-2.7783 v -4.749 c 0,-0.1397 0.049,-0.2578 0.144,-0.3535 0.097,-0.0957 0.215,-0.1446 0.354,-0.1446 0.14,0 0.26,0.0489 0.361,0.1446 0.098,0.0957 0.149,0.2138 0.149,0.3535 v 3.3213 c 0.56,0.708 1.165,1.0615 1.815,1.0615 0.435,0 0.747,-0.1191 0.935,-0.3594 0.188,-0.2402 0.282,-0.5703 0.282,-0.9902 v -3.0332 c 0,-0.1397 0.048,-0.2578 0.145,-0.3535 0.095,-0.0957 0.213,-0.1446 0.353,-0.1446 0.141,0 0.261,0.0489 0.36,0.1446 0.1,0.0957 0.149,0.2138 0.149,0.3535 v 3.1435 c 0,0.6124 -0.173,1.1221 -0.519,1.5284 -0.17,0.1982 -0.376,0.3554 -0.62,0.4697 z m -31.65,2.5517 c -0.143,0 -0.264,-0.049 -0.36,-0.144 -0.095,-0.096 -0.144,-0.218 -0.144,-0.366 v -7.1833 c 0,-0.1397 0.049,-0.2578 0.144,-0.3535 0.096,-0.0957 0.217,-0.1446 0.36,-0.1446 0.144,0 0.264,0.0489 0.361,0.1446 0.094,0.0957 0.143,0.2138 0.143,0.3535 v 7.1833 c 0,0.148 -0.049,0.27 -0.143,0.366 -0.097,0.095 -0.217,0.144 -0.361,0.144 z m 18.938,-2.4355 c -0.144,0 -0.264,-0.0478 -0.361,-0.1445 -0.094,-0.0957 -0.143,-0.2168 -0.143,-0.3643 v -4.749 c 0,-0.1397 0.049,-0.2578 0.143,-0.3535 0.097,-0.0957 0.217,-0.1446 0.361,-0.1446 0.143,0 0.263,0.0489 0.36,0.1446 0.095,0.0957 0.144,0.2138 0.144,0.3535 v 4.749 c 0,0.1475 -0.049,0.2686 -0.144,0.3643 -0.097,0.0967 -0.217,0.1445 -0.36,0.1445 z m -21.76,2.4355 c -0.144,0 -0.264,-0.049 -0.36,-0.144 -0.095,-0.096 -0.144,-0.218 -0.144,-0.366 v -7.1833 c 0,-0.1397 0.049,-0.2578 0.144,-0.3535 0.096,-0.0957 0.216,-0.1446 0.36,-0.1446 0.144,0 0.264,0.0489 0.36,0.1446 0.095,0.0957 0.144,0.2138 0.144,0.3535 v 7.1833 c 0,0.148 -0.049,0.27 -0.144,0.366 -0.096,0.095 -0.216,0.144 -0.36,0.144 z m 19.834,-7.2617 c -0.099,0 -0.192,-0.0156 -0.276,-0.0498 -0.085,-0.0322 -0.226,-0.0498 -0.42,-0.0498 -0.196,0 -0.342,0.0293 -0.438,0.0889 -0.17,0.1025 -0.254,0.2949 -0.254,0.5752 v 3.3428 h 1.249 c 0.126,0 0.23,0.04 0.311,0.122 0.081,0.0811 0.122,0.1836 0.122,0.3106 0,0.125 -0.041,0.2285 -0.122,0.3086 -0.081,0.082 -0.185,0.122 -0.311,0.122 h -1.249 v 0.8858 c 0,0.0586 -0.021,0.1113 -0.061,0.1553 -0.041,0.0439 -0.09,0.0654 -0.15,0.0654 -0.059,0 -0.122,-0.0332 -0.188,-0.0996 L -5.258,-2.79 c -0.066,-0.0586 -0.099,-0.1221 -0.099,-0.1885 0,-0.1396 0.07,-0.2099 0.21,-0.2099 h 0.786 v -3.4307 c 0,-0.5908 0.203,-1.0039 0.609,-1.2402 0.17,-0.1036 0.346,-0.1661 0.531,-0.1875 0.185,-0.0225 0.39,-0.0332 0.614,-0.0332 0.226,0 0.496,0.0732 0.814,0.2207 0.147,0.0664 0.221,0.1738 0.221,0.3213 0,0.1474 -0.04,0.2587 -0.122,0.332 -0.081,0.0732 -0.171,0.1103 -0.271,0.1103 z m -14.096,2.4131 c 0.015,0.2881 0.077,0.5352 0.189,0.7412 0.302,0.583 0.782,0.875 1.438,0.875 0.413,0 0.768,-0.1259 1.063,-0.3769 0.354,-0.3028 0.547,-0.7149 0.576,-1.2393 z m 1.627,2.4688 c -0.87,0 -1.542,-0.3028 -2.014,-0.9082 -0.42,-0.5381 -0.63,-1.2139 -0.63,-2.0244 0,-0.9375 0.25,-1.6612 0.752,-2.17 0.502,-0.5097 1.207,-0.7636 2.114,-0.7636 0.434,0 0.819,0.0478 1.151,0.1435 0.148,0.044 0.284,0.0957 0.41,0.1553 0.124,0.0586 0.267,0.1308 0.425,0.2148 0.159,0.086 0.238,0.2237 0.238,0.416 0,0.1026 -0.044,0.1954 -0.132,0.2764 -0.089,0.0811 -0.181,0.1221 -0.277,0.1221 -0.095,0 -0.21,-0.0332 -0.344,-0.0996 -0.382,-0.1914 -0.858,-0.2881 -1.427,-0.2881 -0.569,0 -1.011,0.1474 -1.327,0.4424 -0.318,0.2949 -0.507,0.6933 -0.566,1.1953 h 3.753 c 0.154,0 0.278,0.0488 0.37,0.1445 0.093,0.0957 0.139,0.2139 0.139,0.3545 0,0.7744 -0.225,1.4238 -0.675,1.9473 -0.479,0.5615 -1.133,0.8418 -1.96,0.8418 z m 6.565,-0.9405 c 0.413,0 0.807,-0.1045 1.183,-0.3105 0.133,-0.0742 0.262,-0.1104 0.388,-0.1104 0.081,0 0.162,0.0479 0.243,0.1436 0.082,0.0957 0.122,0.2109 0.122,0.3437 0,0.1319 -0.084,0.254 -0.254,0.3643 -0.171,0.1113 -0.397,0.2236 -0.681,0.3379 -0.285,0.1143 -0.648,0.1719 -1.09,0.1719 -0.82,0 -1.509,-0.2588 -2.071,-0.7744 -0.59,-0.5469 -0.884,-1.2657 -0.884,-2.1582 0,-0.8946 0.294,-1.6133 0.884,-2.1592 0.562,-0.5166 1.251,-0.7744 2.071,-0.7744 0.657,0 1.247,0.1699 1.771,0.5087 0.17,0.1104 0.254,0.2325 0.254,0.3653 0,0.1328 -0.04,0.2471 -0.122,0.3428 -0.081,0.0957 -0.173,0.1445 -0.276,0.1445 -0.104,0 -0.222,-0.0371 -0.355,-0.1113 -0.376,-0.2061 -0.77,-0.3096 -1.183,-0.3096 -0.65,0 -1.152,0.1826 -1.506,0.5478 -0.355,0.3653 -0.532,0.8467 -0.532,1.4454 0,0.5966 0.177,1.0781 0.532,1.4433 0.354,0.3652 0.856,0.5488 1.506,0.5488 z M -25.291,-6.708 c -0.178,-0.1552 -0.375,-0.2695 -0.592,-0.3427 -0.218,-0.0743 -0.432,-0.1114 -0.643,-0.1114 -0.21,0 -0.423,0.0371 -0.641,0.1114 -0.218,0.0732 -0.413,0.1894 -0.587,0.3476 -0.173,0.1592 -0.315,0.3672 -0.426,0.626 -0.111,0.2588 -0.166,0.5693 -0.166,0.9355 0,0.3643 0.055,0.6768 0.166,0.9356 0.31,0.7158 0.863,1.0732 1.66,1.0732 0.488,0 0.897,-0.1513 1.229,-0.4541 0.398,-0.3681 0.597,-0.8857 0.597,-1.5498 0,-0.6855 -0.199,-1.2099 -0.597,-1.5713 z m -1.229,4.4942 c -0.863,0 -1.549,-0.2705 -2.058,-0.8086 -0.517,-0.5381 -0.776,-1.2471 -0.776,-2.124 0,-0.879 0.259,-1.5879 0.776,-2.126 0.509,-0.5381 1.195,-0.8076 2.058,-0.8076 0.856,0 1.543,0.2695 2.059,0.8076 0.516,0.5459 0.775,1.2549 0.775,2.126 0,0.8701 -0.259,1.5781 -0.775,2.124 -0.516,0.5381 -1.203,0.8086 -2.059,0.8086 z M 73.261,0 H 73.195 C 73.041,0 72.907,-0.056 72.797,-0.166 72.685,-0.277 72.631,-0.41 72.631,-0.564 v -0.0453 c 0,-0.1543 0.054,-0.2881 0.166,-0.3985 0.11,-0.1103 0.244,-0.166 0.398,-0.166 h 0.066 c 0.156,0 0.289,0.0557 0.399,0.166 0.11,0.1104 0.166,0.2442 0.166,0.3985 v 0.0453 c 0,0.154 -0.056,0.287 -0.166,0.398 C 73.55,-0.056 73.417,0 73.261,0 Z m 6.376,-6.3095 c -0.503,-0.5537 -1.085,-0.8301 -1.75,-0.8301 -0.545,0 -0.977,0.166 -1.294,0.498 -0.347,0.3614 -0.52,0.8604 -0.52,1.4952 0,0.3242 0.047,0.6113 0.144,0.8623 0.273,0.7529 0.83,1.1298 1.67,1.1298 0.665,0 1.247,-0.2773 1.75,-0.831 z m 0.503,4.04 c -0.143,0 -0.263,-0.0478 -0.36,-0.1445 -0.096,-0.0957 -0.143,-0.2139 -0.143,-0.3535 v -0.2881 c -0.546,0.5615 -1.177,0.8418 -1.892,0.8418 -0.717,0 -1.329,-0.2549 -1.838,-0.7647 -0.562,-0.5605 -0.841,-1.2832 -0.841,-2.1679 0,-0.9014 0.279,-1.628 0.841,-2.1817 0.516,-0.5019 1.129,-0.7519 1.838,-0.7519 0.715,0 1.346,0.2793 1.892,0.8408 v -2.8238 c 0,-0.146 0.047,-0.268 0.143,-0.364 0.097,-0.095 0.217,-0.143 0.36,-0.143 0.145,0 0.264,0.048 0.36,0.143 0.096,0.096 0.144,0.218 0.144,0.364 v 7.2955 c 0,0.1396 -0.048,0.2578 -0.144,0.3535 -0.096,0.0967 -0.215,0.1445 -0.36,0.1445 z M 43.642,-6.0107 c -0.28,-0.7529 -0.841,-1.1289 -1.681,-1.1289 -0.664,0 -1.248,0.2764 -1.749,0.8301 v 2.3242 c 0.501,0.5537 1.085,0.831 1.749,0.831 0.545,0 0.98,-0.166 1.305,-0.499 0.339,-0.3613 0.509,-0.8594 0.509,-1.4931 0,-0.3252 -0.044,-0.6133 -0.133,-0.8643 z m -1.538,3.7969 c -0.716,0 -1.346,-0.2803 -1.892,-0.8418 v 0.2881 c 0,0.1396 -0.049,0.2578 -0.145,0.3535 -0.096,0.0967 -0.216,0.1445 -0.36,0.1445 -0.143,0 -0.263,-0.0478 -0.36,-0.1445 -0.094,-0.0957 -0.143,-0.2139 -0.143,-0.3535 v -7.2955 c 0,-0.146 0.049,-0.268 0.143,-0.364 0.097,-0.095 0.217,-0.143 0.36,-0.143 0.144,0 0.264,0.048 0.36,0.143 0.096,0.096 0.145,0.218 0.145,0.364 v 2.8238 c 0.546,-0.5615 1.174,-0.8408 1.886,-0.8408 0.712,0 1.327,0.25 1.843,0.7519 0.561,0.5537 0.842,1.2803 0.842,2.1817 0,0.8847 -0.281,1.6074 -0.842,2.1679 -0.509,0.5098 -1.122,0.7647 -1.837,0.7647 z m 47.505,-2.4688 c 0.015,0.2881 0.077,0.5352 0.189,0.7412 0.302,0.583 0.782,0.875 1.438,0.875 0.413,0 0.768,-0.1259 1.063,-0.3769 0.354,-0.3028 0.545,-0.7149 0.575,-1.2393 z m 1.627,2.4688 c -0.87,0 -1.543,-0.3028 -2.015,-0.9082 -0.42,-0.5381 -0.63,-1.2139 -0.63,-2.0244 0,-0.9375 0.251,-1.6612 0.752,-2.17 0.501,-0.5097 1.208,-0.7636 2.114,-0.7636 0.435,0 0.82,0.0478 1.152,0.1435 0.148,0.044 0.284,0.0957 0.409,0.1553 0.125,0.0586 0.268,0.1308 0.426,0.2148 0.159,0.086 0.238,0.2237 0.238,0.416 0,0.1026 -0.045,0.1954 -0.132,0.2764 -0.089,0.0811 -0.181,0.1221 -0.277,0.1221 -0.097,0 -0.21,-0.0332 -0.344,-0.0996 -0.383,-0.1914 -0.859,-0.2881 -1.427,-0.2881 -0.569,0 -1.012,0.1474 -1.328,0.4424 -0.318,0.2949 -0.506,0.6933 -0.565,1.1953 h 3.753 c 0.153,0 0.277,0.0488 0.37,0.1445 0.092,0.0957 0.139,0.2139 0.139,0.3545 0,0.7744 -0.226,1.4238 -0.676,1.9473 -0.479,0.5615 -1.133,0.8418 -1.959,0.8418 z m 7.019,-2.8565 c -0.245,0.1182 -0.513,0.211 -0.804,0.2774 -0.291,0.0664 -0.559,0.1328 -0.803,0.1992 -0.243,0.0664 -0.447,0.1494 -0.614,0.249 -0.166,0.0996 -0.248,0.2529 -0.248,0.46 0,0.205 0.108,0.3828 0.326,0.5302 0.217,0.1475 0.536,0.2217 0.957,0.2217 0.421,0 0.809,-0.0556 1.162,-0.166 0.118,-0.0371 0.218,-0.0557 0.299,-0.0557 0.082,0 0.164,0.044 0.25,0.1338 0.084,0.0879 0.127,0.1817 0.127,0.2813 0,0.0996 -0.028,0.1894 -0.083,0.2715 -0.056,0.081 -0.135,0.1406 -0.238,0.1767 -0.517,0.1846 -1.052,0.2774 -1.606,0.2774 -0.693,0 -1.235,-0.166 -1.627,-0.4981 -0.177,-0.1553 -0.309,-0.3398 -0.397,-0.5537 -0.089,-0.2139 -0.133,-0.4687 -0.133,-0.7637 0,-0.2949 0.08,-0.5449 0.243,-0.748 0.162,-0.2022 0.367,-0.3662 0.614,-0.4922 0.247,-0.125 0.514,-0.2227 0.802,-0.293 0.288,-0.0703 0.556,-0.1386 0.803,-0.205 0.247,-0.0664 0.452,-0.1416 0.614,-0.2266 0.162,-0.085 0.244,-0.209 0.244,-0.3711 0,-0.5234 -0.41,-0.7852 -1.228,-0.7852 -0.51,0 -0.978,0.0957 -1.406,0.2872 -0.133,0.0595 -0.248,0.0888 -0.343,0.0888 -0.097,0 -0.185,-0.0459 -0.266,-0.1386 -0.081,-0.0928 -0.121,-0.2042 -0.121,-0.337 0,-0.1328 0.062,-0.2441 0.188,-0.332 0.596,-0.332 1.269,-0.498 2.013,-0.498 0.688,0 1.222,0.1621 1.606,0.4863 0.354,0.2949 0.531,0.6797 0.531,1.1514 0,0.6201 -0.288,1.0771 -0.862,1.372 z m -11.468,2.8008 c -0.14,0 -0.26,-0.0478 -0.36,-0.1445 -0.099,-0.0957 -0.149,-0.2139 -0.149,-0.3535 v -3.3204 c -0.561,-0.7089 -1.166,-1.0625 -1.815,-1.0625 -0.436,0 -0.747,0.1192 -0.936,0.3594 -0.187,0.2403 -0.282,0.5703 -0.282,0.9903 v 3.0332 c 0,0.1396 -0.048,0.2578 -0.144,0.3535 -0.095,0.0967 -0.214,0.1445 -0.354,0.1445 -0.141,0 -0.26,-0.0478 -0.36,-0.1445 -0.1,-0.0957 -0.149,-0.2139 -0.149,-0.3535 v -3.1436 c 0,-0.6123 0.173,-1.1221 0.52,-1.5273 0.169,-0.1993 0.376,-0.3565 0.62,-0.4698 0.244,-0.1152 0.555,-0.1718 0.935,-0.1718 0.38,0 0.78,0.1211 1.201,0.3652 0.214,0.125 0.469,0.3428 0.764,0.6523 v -0.4531 c 0,-0.1484 0.05,-0.2695 0.149,-0.3652 0.1,-0.0957 0.22,-0.1446 0.36,-0.1446 0.14,0 0.258,0.0489 0.354,0.1446 0.096,0.0957 0.144,0.2168 0.144,0.3652 v 4.7481 c 0,0.1396 -0.048,0.2578 -0.144,0.3535 -0.096,0.0967 -0.214,0.1445 -0.354,0.1445 z m -31.71,0.0557 h -0.056 c -0.642,0 -1.221,-0.3477 -1.738,-1.0401 v 0.4756 c 0,0.1397 -0.05,0.2598 -0.149,0.3594 -0.1,0.0996 -0.22,0.1494 -0.36,0.1494 -0.14,0 -0.258,-0.0498 -0.354,-0.1494 -0.096,-0.0996 -0.144,-0.2197 -0.144,-0.3594 v -4.749 c 0,-0.1397 0.048,-0.2578 0.144,-0.3535 0.096,-0.0957 0.214,-0.1446 0.354,-0.1446 0.14,0 0.26,0.0489 0.36,0.1446 0.099,0.0957 0.149,0.2138 0.149,0.3535 v 3.3652 c 0.192,0.2871 0.434,0.5215 0.726,0.7032 0.291,0.1796 0.621,0.2705 0.99,0.2705 h 0.055 c 0.148,0 0.269,0.042 0.366,0.1279 0.095,0.084 0.143,0.1992 0.143,0.3428 0,0.1435 -0.046,0.2636 -0.138,0.3603 -0.093,0.0957 -0.208,0.1436 -0.348,0.1436 z m 1.919,-0.0557 c -0.144,0 -0.264,-0.0478 -0.36,-0.1445 -0.095,-0.0957 -0.143,-0.2168 -0.143,-0.3643 v -4.749 c 0,-0.1397 0.048,-0.2578 0.143,-0.3535 0.096,-0.0957 0.216,-0.1446 0.36,-0.1446 0.144,0 0.264,0.0489 0.36,0.1446 0.096,0.0957 0.144,0.2138 0.144,0.3535 v 4.749 c 0,0.1475 -0.048,0.2686 -0.144,0.3643 -0.096,0.0967 -0.216,0.1445 -0.36,0.1445 z m 5.905,-4.4385 c -0.178,-0.1552 -0.375,-0.2695 -0.592,-0.3427 -0.218,-0.0743 -0.431,-0.1114 -0.641,-0.1114 -0.211,0 -0.425,0.0371 -0.643,0.1114 -0.218,0.0732 -0.413,0.1894 -0.587,0.3476 -0.173,0.1592 -0.315,0.3672 -0.426,0.626 -0.111,0.2588 -0.166,0.5693 -0.166,0.9355 0,0.3643 0.055,0.6768 0.166,0.9356 0.31,0.7158 0.864,1.0732 1.661,1.0732 0.487,0 0.896,-0.1513 1.228,-0.4541 0.399,-0.3681 0.598,-0.8857 0.598,-1.5498 0,-0.6855 -0.199,-1.2099 -0.598,-1.5713 z m -1.228,4.4942 c -0.864,0 -1.55,-0.2705 -2.059,-0.8086 -0.518,-0.5381 -0.774,-1.2471 -0.774,-2.124 0,-0.879 0.256,-1.5879 0.774,-2.126 0.509,-0.5381 1.195,-0.8076 2.059,-0.8076 0.855,0 1.542,0.2695 2.058,0.8076 0.517,0.5459 0.776,1.2549 0.776,2.126 0,0.8701 -0.259,1.5781 -0.776,2.124 -0.516,0.5381 -1.203,0.8086 -2.058,0.8086 z m 8.357,-4.0957 c -0.503,-0.5537 -1.085,-0.8301 -1.749,-0.8301 -0.547,0 -0.979,0.166 -1.296,0.498 -0.347,0.3614 -0.519,0.8604 -0.519,1.4952 0,0.3242 0.046,0.6113 0.143,0.8623 0.274,0.7529 0.83,1.1298 1.672,1.1298 0.664,0 1.246,-0.2773 1.749,-0.831 z m 0.503,6.4755 c -0.144,0 -0.264,-0.049 -0.359,-0.144 -0.097,-0.096 -0.144,-0.218 -0.144,-0.366 v -2.7116 c -0.547,0.5615 -1.178,0.8418 -1.893,0.8418 -0.716,0 -1.329,-0.2549 -1.837,-0.7647 -0.562,-0.5605 -0.841,-1.2832 -0.841,-2.1679 0,-0.9014 0.279,-1.628 0.841,-2.1817 0.515,-0.5019 1.128,-0.7519 1.837,-0.7519 0.715,0 1.346,0.2793 1.893,0.8408 v -0.2881 c 0,-0.1397 0.047,-0.2578 0.144,-0.3535 0.095,-0.0957 0.215,-0.1446 0.359,-0.1446 0.144,0 0.264,0.0489 0.359,0.1446 0.097,0.0957 0.145,0.2138 0.145,0.3535 v 7.1833 c 0,0.148 -0.048,0.27 -0.145,0.366 -0.095,0.095 -0.215,0.144 -0.359,0.144 z m 2.689,-2.4355 c -0.143,0 -0.263,-0.0478 -0.359,-0.1445 -0.096,-0.0957 -0.144,-0.2168 -0.144,-0.3643 v -4.749 c 0,-0.1397 0.048,-0.2578 0.144,-0.3535 0.096,-0.0957 0.216,-0.1446 0.359,-0.1446 0.145,0 0.265,0.0489 0.361,0.1446 0.095,0.0957 0.143,0.2138 0.143,0.3535 v 4.749 c 0,0.1475 -0.048,0.2686 -0.143,0.3643 -0.096,0.0967 -0.216,0.1445 -0.361,0.1445 z M 57.035,0 H 56.968 C 56.814,0 56.68,-0.056 56.57,-0.166 56.46,-0.277 56.404,-0.41 56.404,-0.564 v -0.0453 c 0,-0.1543 0.056,-0.2881 0.166,-0.3985 0.11,-0.1103 0.244,-0.166 0.398,-0.166 h 0.067 c 0.155,0 0.288,0.0557 0.398,0.166 0.112,0.1104 0.166,0.2442 0.166,0.3985 v 0.0453 c 0,0.154 -0.054,0.287 -0.166,0.398 C 57.323,-0.056 57.19,0 57.035,0 Z M 46.763,-4.6826 c 0.015,0.2881 0.079,0.5352 0.189,0.7412 0.303,0.583 0.782,0.875 1.438,0.875 0.413,0 0.768,-0.1259 1.063,-0.3769 0.354,-0.3028 0.547,-0.7149 0.576,-1.2393 z m 1.627,2.4688 c -0.87,0 -1.542,-0.3028 -2.013,-0.9082 -0.421,-0.5381 -0.631,-1.2139 -0.631,-2.0244 0,-0.9375 0.25,-1.6612 0.752,-2.17 C 47,-7.8261 47.705,-8.08 48.612,-8.08 c 0.436,0 0.819,0.0478 1.151,0.1435 0.148,0.044 0.285,0.0957 0.411,0.1553 0.125,0.0586 0.266,0.1308 0.425,0.2148 0.159,0.086 0.238,0.2237 0.238,0.416 0,0.1026 -0.044,0.1954 -0.133,0.2764 -0.088,0.0811 -0.181,0.1221 -0.277,0.1221 -0.095,0 -0.209,-0.0332 -0.343,-0.0996 -0.383,-0.1914 -0.859,-0.2881 -1.428,-0.2881 -0.567,0 -1.011,0.1474 -1.327,0.4424 -0.318,0.2949 -0.506,0.6933 -0.566,1.1953 h 3.753 c 0.155,0 0.279,0.0488 0.37,0.1445 0.093,0.0957 0.139,0.2139 0.139,0.3545 0,0.7744 -0.224,1.4238 -0.675,1.9473 -0.479,0.5615 -1.132,0.8418 -1.96,0.8418 z M -59.526,-7.0293 h -2.844 l 3.099,3.6309 c 0.103,0.125 0.155,0.2783 0.155,0.459 0,0.1816 -0.06,0.3281 -0.177,0.4433 -0.119,0.1143 -0.274,0.1709 -0.465,0.1709 h -3.354 c -0.133,0 -0.244,-0.0459 -0.332,-0.1377 -0.089,-0.0927 -0.133,-0.205 -0.133,-0.3378 0,-0.1329 0.044,-0.2442 0.133,-0.3321 0.088,-0.0879 0.199,-0.1328 0.332,-0.1328 h 2.8 l -3.187,-3.6641 c -0.118,-0.1328 -0.178,-0.289 -0.178,-0.4707 0,-0.1796 0.068,-0.3203 0.205,-0.4199 0.137,-0.0996 0.301,-0.1494 0.493,-0.1494 h 3.453 c 0.133,0 0.245,0.044 0.338,0.1328 0.092,0.0889 0.138,0.1992 0.138,0.3321 0,0.1328 -0.046,0.2451 -0.138,0.3369 -0.093,0.0927 -0.205,0.1386 -0.338,0.1386 z m 8.711,4.7598 c -0.237,0 -0.399,-0.0957 -0.487,-0.2881 l -1.693,-4.2939 -1.694,4.2939 c -0.089,0.1924 -0.251,0.2881 -0.487,0.2881 -0.118,0 -0.225,-0.0498 -0.321,-0.1494 -0.096,-0.0996 -0.144,-0.2012 -0.144,-0.3047 0,-0.1025 0.019,-0.1982 0.055,-0.2871 l 1.926,-4.6045 c 0.052,-0.1113 0.131,-0.207 0.238,-0.2881 0.107,-0.081 0.231,-0.1221 0.371,-0.1221 h 0.111 c 0.14,0 0.263,0.0411 0.37,0.1221 0.108,0.0811 0.187,0.1768 0.239,0.2881 l 1.925,4.6045 c 0.037,0.0889 0.056,0.1914 0.056,0.3096 0,0.0888 -0.048,0.1826 -0.144,0.2822 -0.096,0.0996 -0.203,0.1494 -0.321,0.1494 z m -39.138,0.0557 c -0.531,0 -1.007,-0.1514 -1.428,-0.4541 -0.199,-0.1328 -0.402,-0.3614 -0.609,-0.6866 -0.14,0.3399 -0.343,0.6016 -0.608,0.7862 -0.325,0.2363 -0.686,0.3545 -1.085,0.3545 -0.805,0 -1.432,-0.3399 -1.882,-1.0186 v 0.4541 c 0,0.1397 -0.049,0.2598 -0.149,0.3594 -0.1,0.0996 -0.22,0.1494 -0.36,0.1494 -0.14,0 -0.258,-0.0498 -0.354,-0.1494 -0.096,-0.0996 -0.144,-0.2197 -0.144,-0.3594 v -4.749 c 0,-0.1397 0.048,-0.2578 0.144,-0.3535 0.096,-0.0957 0.214,-0.1446 0.354,-0.1446 0.14,0 0.26,0.0489 0.36,0.1446 0.1,0.0957 0.149,0.2138 0.149,0.3535 v 3.3213 c 0.413,0.708 0.945,1.0615 1.594,1.0615 0.421,0 0.714,-0.1152 0.88,-0.3477 0.166,-0.2324 0.249,-0.582 0.249,-1.0468 v -2.9883 c 0,-0.1397 0.048,-0.2578 0.145,-0.3535 0.095,-0.0957 0.213,-0.1446 0.353,-0.1446 0.141,0 0.26,0.0489 0.36,0.1446 0.099,0.0957 0.149,0.2138 0.149,0.3535 v 3.3213 c 0.414,0.708 0.945,1.0615 1.594,1.0615 0.421,0 0.714,-0.1152 0.88,-0.3477 0.166,-0.2324 0.249,-0.582 0.249,-1.0468 v -2.9883 c 0,-0.1397 0.048,-0.2578 0.144,-0.3535 0.096,-0.0957 0.214,-0.1446 0.354,-0.1446 0.14,0 0.261,0.0489 0.36,0.1446 0.099,0.0957 0.15,0.2138 0.15,0.3535 v 3.1875 c 0,0.5684 -0.148,1.0488 -0.443,1.4394 -0.34,0.4571 -0.808,0.6866 -1.406,0.6866 z m 13.747,-4.1514 c -0.192,-0.2139 -0.437,-0.4062 -0.736,-0.5752 -0.299,-0.1699 -0.622,-0.2549 -0.968,-0.2549 -0.783,0 -1.174,0.2949 -1.174,0.8858 0,0.3173 0.148,0.542 0.443,0.6748 0.295,0.1328 0.705,0.1992 1.229,0.1992 h 1.206 z m -1.295,4.1514 c -0.664,0 -1.306,-0.1338 -1.926,-0.3985 -0.192,-0.081 -0.288,-0.2041 -0.288,-0.3662 0,-0.1621 0.041,-0.2812 0.122,-0.3594 0.081,-0.0771 0.159,-0.1162 0.233,-0.1162 0.074,0 0.14,0.0069 0.199,0.0225 0.553,0.1777 1.044,0.2656 1.472,0.2656 0.502,0 0.874,-0.1054 1.118,-0.3154 0.244,-0.21 0.365,-0.5625 0.365,-1.0576 v -0.0879 h -1.339 c -0.834,0 -1.476,-0.1699 -1.926,-0.5098 -0.414,-0.3096 -0.62,-0.7383 -0.62,-1.2832 0,-0.5019 0.178,-0.9082 0.531,-1.2178 0.34,-0.2959 0.764,-0.4423 1.273,-0.4423 0.517,0 0.943,0.0878 1.278,0.2656 0.336,0.1767 0.604,0.3681 0.803,0.5752 v -0.2881 c 0,-0.1397 0.048,-0.2578 0.144,-0.3535 0.096,-0.0957 0.214,-0.1446 0.354,-0.1446 0.14,0 0.26,0.0489 0.36,0.1446 0.1,0.0957 0.149,0.2138 0.149,0.3535 v 3.1328 c 0,0.5977 -0.184,1.0957 -0.553,1.4941 -0.413,0.4571 -0.996,0.6866 -1.749,0.6866 z m 8.755,-2.4688 c 0.014,0.2881 0.077,0.5352 0.188,0.7412 0.302,0.583 0.782,0.875 1.439,0.875 0.413,0 0.767,-0.1259 1.063,-0.3769 0.354,-0.3028 0.545,-0.7149 0.575,-1.2393 z m 1.627,2.4688 c -0.871,0 -1.542,-0.3028 -2.015,-0.9082 -0.42,-0.5381 -0.63,-1.2139 -0.63,-2.0244 0,-0.9375 0.25,-1.6612 0.752,-2.17 0.502,-0.5097 1.207,-0.7636 2.115,-0.7636 0.435,0 0.819,0.0478 1.151,0.1435 0.147,0.044 0.284,0.0957 0.409,0.1553 0.125,0.0586 0.267,0.1308 0.426,0.2148 0.159,0.086 0.238,0.2237 0.238,0.416 0,0.1026 -0.044,0.1954 -0.133,0.2764 -0.088,0.0811 -0.181,0.1221 -0.276,0.1221 -0.096,0 -0.211,-0.0332 -0.344,-0.0996 -0.383,-0.1914 -0.859,-0.2881 -1.427,-0.2881 -0.569,0 -1.012,0.1474 -1.329,0.4424 -0.317,0.2949 -0.505,0.6933 -0.564,1.1953 h 3.752 c 0.155,0 0.278,0.0488 0.371,0.1445 0.092,0.0957 0.138,0.2139 0.138,0.3545 0,0.7744 -0.225,1.4238 -0.674,1.9473 -0.481,0.5615 -1.134,0.8418 -1.96,0.8418 z m -3.685,0 h -0.056 c -0.642,0 -1.221,-0.3477 -1.737,-1.0401 v 0.4756 c 0,0.1397 -0.05,0.2598 -0.15,0.3594 -0.099,0.0996 -0.219,0.1494 -0.36,0.1494 -0.14,0 -0.258,-0.0498 -0.354,-0.1494 -0.096,-0.0996 -0.143,-0.2197 -0.143,-0.3594 v -4.749 c 0,-0.1397 0.047,-0.2578 0.143,-0.3535 0.096,-0.0957 0.214,-0.1446 0.354,-0.1446 0.141,0 0.261,0.0489 0.36,0.1446 0.1,0.0957 0.15,0.2138 0.15,0.3535 v 3.3652 c 0.191,0.2871 0.433,0.5215 0.725,0.7032 0.291,0.1796 0.621,0.2705 0.99,0.2705 h 0.056 c 0.147,0 0.269,0.042 0.365,0.1279 0.096,0.084 0.144,0.1992 0.144,0.3428 0,0.1435 -0.046,0.2636 -0.139,0.3603 -0.092,0.0957 -0.208,0.1436 -0.348,0.1436 z m 25.147,-4.4942 c -0.177,-0.1552 -0.375,-0.2695 -0.592,-0.3427 -0.218,-0.0743 -0.432,-0.1114 -0.642,-0.1114 -0.211,0 -0.425,0.0371 -0.642,0.1114 -0.218,0.0732 -0.414,0.1894 -0.586,0.3476 -0.174,0.1592 -0.316,0.3672 -0.427,0.626 -0.111,0.2588 -0.166,0.5693 -0.166,0.9355 0,0.3643 0.055,0.6768 0.166,0.9356 0.31,0.7158 0.863,1.0732 1.66,1.0732 0.487,0 0.897,-0.1513 1.229,-0.4541 0.399,-0.3681 0.598,-0.8857 0.598,-1.5498 0,-0.6855 -0.199,-1.2099 -0.598,-1.5713 z m -1.229,4.4942 c -0.863,0 -1.549,-0.2705 -2.059,-0.8086 -0.516,-0.5381 -0.775,-1.2471 -0.775,-2.124 0,-0.879 0.259,-1.5879 0.775,-2.126 0.51,-0.5381 1.196,-0.8076 2.059,-0.8076 0.856,0 1.542,0.2695 2.06,0.8076 0.515,0.5459 0.774,1.2549 0.774,2.126 0,0.8701 -0.259,1.5781 -0.774,2.124 -0.518,0.5381 -1.204,0.8086 -2.06,0.8086 z m -35.187,-3.7969 c -0.28,-0.7529 -0.84,-1.1289 -1.682,-1.1289 -0.664,0 -1.247,0.2764 -1.748,0.8301 v 2.3242 c 0.501,0.5537 1.084,0.831 1.748,0.831 0.546,0 0.981,-0.166 1.306,-0.499 0.34,-0.3613 0.51,-0.8594 0.51,-1.4931 0,-0.3252 -0.045,-0.6133 -0.134,-0.8643 z m -1.538,3.7969 c -0.715,0 -1.346,-0.2803 -1.892,-0.8418 v 0.2881 c 0,0.1396 -0.049,0.2578 -0.144,0.3535 -0.096,0.0967 -0.216,0.1445 -0.36,0.1445 -0.144,0 -0.264,-0.0478 -0.359,-0.1445 -0.097,-0.0957 -0.145,-0.2139 -0.145,-0.3535 v -7.2955 c 0,-0.146 0.048,-0.268 0.145,-0.364 0.095,-0.095 0.215,-0.143 0.359,-0.143 0.144,0 0.264,0.048 0.36,0.143 0.095,0.096 0.144,0.218 0.144,0.364 v 2.8238 c 0.546,-0.5615 1.175,-0.8408 1.887,-0.8408 0.712,0 1.326,0.25 1.843,0.7519 0.56,0.5537 0.841,1.2803 0.841,2.1817 0,0.8847 -0.281,1.6074 -0.841,2.1679 -0.509,0.5098 -1.122,0.7647 -1.838,0.7647 z m 43.986,-2.8565 c -0.243,0.1182 -0.511,0.211 -0.803,0.2774 -0.291,0.0664 -0.559,0.1328 -0.802,0.1992 -0.243,0.0664 -0.448,0.1494 -0.614,0.249 -0.166,0.0996 -0.25,0.2529 -0.25,0.46 0,0.205 0.109,0.3828 0.327,0.5302 0.218,0.1475 0.537,0.2217 0.958,0.2217 0.42,0 0.808,-0.0556 1.162,-0.166 0.117,-0.0371 0.217,-0.0557 0.299,-0.0557 0.08,0 0.164,0.044 0.248,0.1338 0.086,0.0879 0.128,0.1817 0.128,0.2813 0,0.0996 -0.028,0.1894 -0.083,0.2715 -0.055,0.081 -0.135,0.1406 -0.238,0.1767 -0.516,0.1846 -1.051,0.2774 -1.606,0.2774 -0.693,0 -1.235,-0.166 -1.626,-0.4981 -0.177,-0.1553 -0.309,-0.3398 -0.399,-0.5537 -0.088,-0.2139 -0.133,-0.4687 -0.133,-0.7637 0,-0.2949 0.082,-0.5449 0.244,-0.748 0.162,-0.2022 0.367,-0.3662 0.614,-0.4922 0.248,-0.125 0.515,-0.2227 0.803,-0.293 0.287,-0.0703 0.556,-0.1386 0.802,-0.205 0.248,-0.0664 0.453,-0.1416 0.615,-0.2266 0.162,-0.085 0.243,-0.209 0.243,-0.3711 0,-0.5234 -0.409,-0.7852 -1.229,-0.7852 -0.508,0 -0.977,0.0957 -1.405,0.2872 -0.132,0.0595 -0.247,0.0888 -0.343,0.0888 -0.096,0 -0.185,-0.0459 -0.266,-0.1386 -0.081,-0.0928 -0.122,-0.2042 -0.122,-0.337 0,-0.1328 0.064,-0.2441 0.189,-0.332 0.597,-0.332 1.269,-0.498 2.013,-0.498 0.688,0 1.223,0.1621 1.606,0.4863 0.354,0.2949 0.531,0.6797 0.531,1.1514 0,0.6201 -0.287,1.0771 -0.863,1.372 z m 87.767,3.376 c 0.092,0 0.171,0.041 0.238,0.1221 l 0.763,0.9072 c 0.075,0.082 0.112,0.174 0.112,0.277 0,0.273 -0.149,0.41 -0.444,0.41 -0.147,0 -0.258,-0.071 -0.332,-0.21 l -0.564,-0.9965 c -0.052,-0.0518 -0.077,-0.1338 -0.077,-0.2432 0,-0.0664 0.027,-0.1279 0.082,-0.1836 0.056,-0.0547 0.13,-0.083 0.222,-0.083 z m -80.252,-1.46 c 0.413,0 0.809,-0.1045 1.185,-0.3105 0.132,-0.0742 0.262,-0.1104 0.387,-0.1104 0.082,0 0.163,0.0479 0.244,0.1436 0.081,0.0957 0.122,0.2109 0.122,0.3437 0,0.1319 -0.086,0.254 -0.255,0.3643 -0.17,0.1113 -0.397,0.2236 -0.681,0.3379 -0.284,0.1143 -0.648,0.1719 -1.091,0.1719 -0.819,0 -1.508,-0.2588 -2.069,-0.7744 -0.59,-0.5469 -0.886,-1.2657 -0.886,-2.1582 0,-0.8946 0.296,-1.6133 0.886,-2.1592 0.561,-0.5166 1.25,-0.7744 2.069,-0.7744 0.658,0 1.248,0.1699 1.772,0.5087 0.169,0.1104 0.255,0.2325 0.255,0.3653 0,0.1328 -0.041,0.2471 -0.122,0.3428 -0.081,0.0957 -0.174,0.1445 -0.277,0.1445 -0.103,0 -0.222,-0.0371 -0.354,-0.1113 -0.376,-0.2061 -0.772,-0.3096 -1.185,-0.3096 -0.649,0 -1.15,0.1826 -1.506,0.5478 -0.353,0.3653 -0.531,0.8467 -0.531,1.4454 0,0.5966 0.178,1.0781 0.531,1.4433 0.356,0.3652 0.857,0.5488 1.506,0.5488 z m -76.089,1.8262 c 0.373,0.1543 0.789,0.2324 1.25,0.2324 0.462,0 0.848,-0.0488 1.157,-0.1445 0.31,-0.0957 0.612,-0.2217 0.908,-0.377 0.059,-0.0292 0.142,-0.0429 0.249,-0.0429 0.107,0 0.199,0.041 0.277,0.1269 0.078,0.085 0.116,0.1807 0.116,0.2871 0,0.1075 -0.022,0.1963 -0.067,0.2657 -0.044,0.0703 -0.171,0.1631 -0.382,0.2773 -0.21,0.1133 -0.512,0.2381 -0.907,0.3711 -0.395,0.133 -0.865,0.199 -1.412,0.199 -1.128,0 -2.051,-0.354 -2.767,-1.0623 -0.737,-0.7236 -1.106,-1.6943 -1.106,-2.9121 0,-1.2168 0.369,-2.1875 1.106,-2.9101 0.347,-0.3477 0.757,-0.6114 1.229,-0.7911 0.472,-0.1816 0.983,-0.2714 1.533,-0.2714 0.55,0 1.022,0.0664 1.417,0.1992 0.395,0.1328 0.766,0.2949 1.112,0.4863 0.162,0.082 0.244,0.2217 0.244,0.4209 0,0.1104 -0.038,0.208 -0.116,0.2939 -0.078,0.084 -0.17,0.127 -0.277,0.127 -0.107,0 -0.19,-0.0156 -0.249,-0.0449 -0.296,-0.1543 -0.598,-0.2793 -0.908,-0.376 -0.309,-0.0967 -0.682,-0.1436 -1.118,-0.1436 -0.945,0 -1.686,0.2911 -2.225,0.8741 -0.494,0.5381 -0.741,1.2509 -0.741,2.1357 0,0.8867 0.247,1.5977 0.741,2.1367 0.251,0.2735 0.563,0.4864 0.936,0.6426 z m 8.728,-5.3799 c -0.178,-0.1552 -0.375,-0.2695 -0.593,-0.3427 -0.217,-0.0743 -0.431,-0.1114 -0.642,-0.1114 -0.21,0 -0.424,0.0371 -0.641,0.1114 -0.219,0.0732 -0.414,0.1894 -0.587,0.3476 -0.174,0.1592 -0.316,0.3672 -0.427,0.626 -0.11,0.2588 -0.166,0.5693 -0.166,0.9355 0,0.3643 0.056,0.6768 0.166,0.9356 0.31,0.7158 0.864,1.0732 1.661,1.0732 0.487,0 0.896,-0.1513 1.229,-0.4541 0.398,-0.3681 0.597,-0.8857 0.597,-1.5498 0,-0.6855 -0.199,-1.2099 -0.597,-1.5713 z m -1.229,4.4942 c -0.864,0 -1.55,-0.2705 -2.059,-0.8086 -0.517,-0.5381 -0.775,-1.2471 -0.775,-2.124 0,-0.879 0.258,-1.5879 0.775,-2.126 0.509,-0.5381 1.195,-0.8076 2.059,-0.8076 0.856,0 1.542,0.2695 2.059,0.8076 0.516,0.5459 0.775,1.2549 0.775,2.126 0,0.8701 -0.259,1.5781 -0.775,2.124 -0.517,0.5381 -1.203,0.8086 -2.059,0.8086 z M 67.59,36.319 c -1.225,-3.288 -3.674,-4.932 -7.35,-4.932 -2.902,0 -5.447,1.209 -7.641,3.627 v 10.154 c 2.194,2.418 4.739,3.627 7.641,3.627 2.385,0 4.287,-0.726 5.707,-2.177 1.48,-1.58 2.223,-3.755 2.223,-6.527 0,-1.42 -0.194,-2.676 -0.58,-3.772 z m -6.721,16.585 c -3.127,0 -5.885,-1.225 -8.27,-3.675 v 1.257 c 0,0.613 -0.209,1.129 -0.627,1.548 -0.42,0.419 -0.943,0.629 -1.572,0.629 -0.629,0 -1.152,-0.21 -1.572,-0.629 -0.418,-0.419 -0.629,-0.935 -0.629,-1.548 V 23.658 c 0,-0.644 0.211,-1.176 0.629,-1.595 0.42,-0.418 0.943,-0.629 1.572,-0.629 0.629,0 1.152,0.211 1.572,0.629 0.418,0.419 0.627,0.951 0.627,1.595 v 7.294 c 2.385,-2.451 5.135,-3.676 8.244,-3.676 3.112,0 5.795,1.096 8.053,3.289 2.449,2.418 3.674,5.593 3.674,9.526 0,3.868 -1.225,7.027 -3.674,9.477 -2.224,2.225 -4.9,3.336 -8.027,3.336 z m 20.453,-7.543 c 1.322,2.546 3.418,3.82 6.287,3.82 1.805,0 3.352,-0.548 4.641,-1.644 1.549,-1.322 2.386,-3.127 2.515,-5.415 H 80.5 c 0.064,1.257 0.338,2.337 0.822,3.239 z M 95.394,28.583 c 0.547,0.256 1.166,0.571 1.862,0.942 0.693,0.37 1.039,0.975 1.039,1.813 0,0.452 -0.194,0.854 -0.58,1.209 -0.387,0.354 -0.791,0.533 -1.209,0.533 -0.418,0 -0.918,-0.146 -1.498,-0.436 -1.678,-0.838 -3.758,-1.257 -6.239,-1.257 -2.482,0 -4.416,0.645 -5.802,1.934 -1.387,1.289 -2.209,3.03 -2.467,5.223 h 16.392 c 0.678,0 1.217,0.209 1.621,0.628 0.403,0.418 0.604,0.935 0.604,1.548 0,3.384 -0.984,6.22 -2.949,8.509 -2.096,2.45 -4.95,3.675 -8.559,3.675 -3.805,0 -6.738,-1.321 -8.801,-3.964 -1.838,-2.354 -2.757,-5.304 -2.757,-8.849 0,-4.094 1.097,-7.254 3.289,-9.478 2.193,-2.224 5.271,-3.337 9.236,-3.337 1.902,0 3.578,0.211 5.027,0.629 0.647,0.194 1.242,0.419 1.791,0.678 z m -186.887,7.736 c -1.225,-3.288 -3.675,-4.932 -7.35,-4.932 -2.901,0 -5.448,1.209 -7.64,3.627 v 10.154 c 2.192,2.418 4.739,3.627 7.64,3.627 2.385,0 4.287,-0.726 5.706,-2.177 1.482,-1.58 2.225,-3.755 2.225,-6.527 0,-1.42 -0.194,-2.676 -0.581,-3.772 z m -6.721,16.585 c -3.128,0 -5.883,-1.225 -8.269,-3.675 v 1.257 c 0,0.613 -0.21,1.129 -0.628,1.548 -0.42,0.419 -0.943,0.629 -1.572,0.629 -0.628,0 -1.153,-0.21 -1.572,-0.629 -0.419,-0.419 -0.628,-0.935 -0.628,-1.548 V 13.584 c 0,-0.644 0.209,-1.176 0.628,-1.596 0.419,-0.418 0.944,-0.629 1.572,-0.629 0.629,0 1.152,0.211 1.572,0.629 0.418,0.42 0.628,0.952 0.628,1.596 v 17.368 c 2.386,-2.451 5.133,-3.676 8.245,-3.676 3.11,0 5.794,1.096 8.051,3.289 2.449,2.418 3.675,5.593 3.675,9.526 0,3.868 -1.226,7.027 -3.675,9.477 -2.225,2.225 -4.901,3.336 -8.027,3.336 z m 25.652,2.273 c 0.402,0 0.749,0.177 1.039,0.532 l 3.337,3.965 c 0.321,0.355 0.483,0.757 0.483,1.209 0,1.192 -0.645,1.789 -1.934,1.789 -0.645,0 -1.129,-0.307 -1.451,-0.919 l -2.466,-4.352 c -0.226,-0.225 -0.338,-0.58 -0.338,-1.063 0,-0.29 0.121,-0.556 0.363,-0.798 0.241,-0.242 0.563,-0.363 0.967,-0.363 z M -9.051,34.433 c 0,2.708 -1.256,4.707 -3.772,5.996 -1.062,0.516 -2.232,0.919 -3.505,1.209 -1.274,0.291 -2.442,0.58 -3.504,0.87 -1.065,0.29 -1.959,0.653 -2.684,1.088 -0.726,0.436 -1.088,1.104 -1.088,2.007 0,0.902 0.473,1.676 1.426,2.321 0.951,0.644 2.346,0.967 4.184,0.967 1.836,0 3.529,-0.241 5.076,-0.725 0.515,-0.162 0.949,-0.242 1.306,-0.242 0.354,0 0.715,0.194 1.086,0.58 0.371,0.387 0.557,0.798 0.557,1.234 0,0.435 -0.121,0.829 -0.363,1.184 -0.241,0.354 -0.588,0.612 -1.039,0.773 -2.256,0.806 -4.594,1.209 -7.012,1.209 -3.029,0 -5.4,-0.724 -7.108,-2.175 -0.773,-0.677 -1.353,-1.483 -1.741,-2.417 -0.386,-0.936 -0.579,-2.049 -0.579,-3.337 0,-1.29 0.354,-2.378 1.063,-3.265 0.709,-0.886 1.603,-1.603 2.683,-2.151 1.08,-0.548 2.248,-0.975 3.506,-1.281 1.258,-0.307 2.426,-0.605 3.506,-0.895 1.08,-0.291 1.975,-0.621 2.684,-0.991 0.709,-0.371 1.064,-0.912 1.064,-1.62 0,-2.289 -1.789,-3.434 -5.367,-3.434 -2.225,0 -4.272,0.419 -6.141,1.258 -0.581,0.258 -1.082,0.387 -1.5,0.387 -0.419,0 -0.806,-0.203 -1.16,-0.605 -0.355,-0.403 -0.531,-0.894 -0.531,-1.475 0,-0.58 0.273,-1.063 0.821,-1.45 2.61,-1.45 5.544,-2.177 8.8,-2.177 2.998,0 5.336,0.71 7.012,2.128 1.547,1.289 2.32,2.966 2.32,5.029 z m 24.178,-1.837 c -0.356,0.419 -0.758,0.628 -1.209,0.628 -0.451,0 -0.967,-0.161 -1.547,-0.483 -1.645,-0.903 -3.369,-1.354 -5.174,-1.354 -2.838,0 -5.029,0.798 -6.576,2.393 -1.547,1.596 -2.322,3.7 -2.322,6.311 0,2.611 0.775,4.714 2.322,6.31 1.547,1.596 3.738,2.394 6.576,2.394 1.805,0 3.529,-0.452 5.174,-1.354 0.58,-0.323 1.142,-0.484 1.691,-0.484 0.354,0 0.709,0.209 1.065,0.629 0.353,0.418 0.531,0.918 0.531,1.499 0,0.58 -0.369,1.112 -1.111,1.595 -0.743,0.484 -1.735,0.975 -2.975,1.475 -1.242,0.5 -2.828,0.749 -4.762,0.749 -3.58,0 -6.593,-1.128 -9.043,-3.384 -2.58,-2.386 -3.869,-5.529 -3.869,-9.429 0,-3.9 1.289,-7.044 3.869,-9.429 2.45,-2.257 5.463,-3.386 9.043,-3.386 2.867,0 5.448,0.742 7.737,2.225 0.742,0.483 1.111,1.016 1.111,1.595 0,0.581 -0.178,1.081 -0.531,1.5 z M 28.06,31.774 c -0.951,0.322 -1.804,0.83 -2.562,1.523 -0.758,0.693 -1.377,1.603 -1.862,2.732 -0.482,1.128 -0.724,2.49 -0.724,4.085 0,1.596 0.242,2.958 0.724,4.087 1.354,3.127 3.772,4.69 7.254,4.69 2.127,0 3.916,-0.661 5.368,-1.983 1.74,-1.612 2.611,-3.868 2.611,-6.769 0,-2.998 -0.871,-5.287 -2.611,-6.866 -0.776,-0.677 -1.637,-1.177 -2.588,-1.499 -0.952,-0.322 -1.887,-0.484 -2.805,-0.484 -0.918,0 -1.854,0.162 -2.805,0.484 z m 11.824,-0.967 c 2.254,2.385 3.383,5.48 3.383,9.284 0,3.803 -1.129,6.898 -3.383,9.284 -2.257,2.352 -5.255,3.529 -8.994,3.529 -3.771,0 -6.769,-1.177 -8.994,-3.529 -2.258,-2.353 -3.385,-5.448 -3.385,-9.284 0,-3.837 1.127,-6.932 3.385,-9.284 2.225,-2.354 5.223,-3.531 8.994,-3.531 3.739,0 6.737,1.177 8.994,3.531 z m -81.379,18.399 c 0.419,0.369 0.629,0.87 0.629,1.499 0,0.629 -0.203,1.152 -0.605,1.571 -0.404,0.419 -0.911,0.628 -1.523,0.628 h -0.243 c -2.803,0 -5.335,-1.515 -7.59,-4.545 v 2.08 c 0,0.611 -0.218,1.135 -0.653,1.571 -0.435,0.435 -0.96,0.653 -1.572,0.653 -0.613,0 -1.128,-0.218 -1.547,-0.653 -0.42,-0.436 -0.629,-0.96 -0.629,-1.571 V 29.694 c 0,-0.612 0.209,-1.128 0.629,-1.547 0.419,-0.418 0.934,-0.628 1.547,-0.628 0.612,0 1.137,0.21 1.572,0.628 0.435,0.419 0.653,0.935 0.653,1.547 v 14.7 c 0.837,1.257 1.893,2.28 3.167,3.07 1.273,0.79 2.714,1.186 4.328,1.186 h 0.241 c 0.645,0 1.177,0.185 1.596,0.556 z m 6.044,8.244 h 0.29 c 0.676,0 1.256,0.241 1.741,0.726 0.483,0.483 0.724,1.063 0.724,1.74 v 0.194 c 0,0.677 -0.241,1.257 -0.724,1.74 -0.485,0.484 -1.065,0.725 -1.741,0.725 h -0.29 c -0.677,0 -1.258,-0.241 -1.741,-0.725 -0.484,-0.483 -0.725,-1.063 -0.725,-1.74 v -0.194 c 0,-0.677 0.241,-1.257 0.725,-1.74 0.483,-0.485 1.064,-0.726 1.741,-0.726 z m -42.31,-12.089 c 1.322,2.546 3.417,3.82 6.287,3.82 1.804,0 3.352,-0.548 4.642,-1.644 1.547,-1.322 2.385,-3.127 2.514,-5.415 h -14.264 c 0.064,1.257 0.338,2.337 0.821,3.239 z m 16.973,-14.023 c 0,0.452 -0.193,0.854 -0.58,1.209 -0.387,0.354 -0.791,0.533 -1.209,0.533 -0.42,0 -0.919,-0.146 -1.499,-0.436 -1.677,-0.838 -3.756,-1.257 -6.238,-1.257 -2.483,0 -4.417,0.645 -5.802,1.934 -1.387,1.289 -2.208,3.03 -2.466,5.223 h 16.392 c 0.677,0 1.216,0.209 1.619,0.628 0.403,0.418 0.605,0.935 0.605,1.548 0,3.384 -0.984,6.22 -2.95,8.509 -2.096,2.45 -4.949,3.675 -8.558,3.675 -3.805,0 -6.738,-1.321 -8.801,-3.964 -1.837,-2.354 -2.756,-5.304 -2.756,-8.849 0,-4.094 1.095,-7.254 3.288,-9.478 2.192,-2.224 5.271,-3.337 9.236,-3.337 1.901,0 3.578,0.211 5.028,0.629 0.645,0.194 1.241,0.419 1.789,0.678 0.548,0.256 1.169,0.571 1.862,0.942 0.693,0.37 1.04,0.975 1.04,1.813 z m 27.658,-1.644 v 20.745 c 0,0.644 -0.21,1.176 -0.629,1.595 -0.419,0.419 -0.942,0.629 -1.571,0.629 -0.629,0 -1.154,-0.21 -1.573,-0.629 -0.418,-0.419 -0.628,-0.951 -0.628,-1.595 V 29.694 c 0,-0.612 0.21,-1.128 0.628,-1.547 0.419,-0.418 0.944,-0.628 1.573,-0.628 0.629,0 1.152,0.21 1.571,0.628 0.419,0.419 0.629,0.935 0.629,1.547"
             style="fill:#3871c1;fill-opacity:1;fill-rule:nonzero;stroke:none"
             id="path881"
             inkscape:connector-curvature="0" /></g></g></g></g></svg>
